<?xml version="1.0" encoding="UTF-8"?>
<svg id="Capa_2" data-name="Capa 2" xmlns="http://www.w3.org/2000/svg" viewBox="0 0 1645.74 1587.78">
  <defs>
    <style>
      .cls-1 {
        fill: #007f27;
      }
    </style>
  </defs>
  <g id="Capa_1-2" data-name="Capa 1">
    <path class="cls-1" d="m865.96,1269.15l180.16-323.21.81,111.6c.01,1.51,1.24,2.73,2.75,2.73,0,0,391.46-.88,391.46-.88.09,0,.19,0,.28-.02,67.31-7.13,122.52-32.57,164.4-75.7-18.13,37.69-34.53,73.63-50.45,108.53-100.95,221.28-167.64,367.46-415.2,367.57h-90.49c-1.51,0-2.74,1.22-2.75,2.73l-.82,125.27-180.16-318.63Zm-450.79,193.57c-78.84-24.08-148.69-78.14-213.52-165.25-57-76.59-101.39-165.78-144.31-252.03-12.37-24.85-24.16-48.55-35.97-71.35,44.12,37.5,118.91,87.95,164.4,87.95,60.68.14,121.37.27,182.06.39l92.31.19h274.33l-.88,400.09h-318.43Zm-228.04-429c-43.36-10.16-82.17-32.04-115.36-65.03-29.82-29.64-54.62-68.31-71.77-111.91l133.22-271.72c.65-1.32.14-2.92-1.15-3.62l-121.03-66.48h378.51l183.25,332.76-119.4-71.49c-.43-.26-.92-.39-1.41-.39-.27,0-.54.04-.8.12-.74.23-1.36.75-1.69,1.46l-122.54,258.76-139.83-2.45Zm1254.47-.16l-136.76-1.48-170.71-314.62,344.2-208.44,167.31,335.21c1.69,30.7-17.21,69.45-51.92,106.42-45.83,48.81-108.01,82.9-151.21,82.9-.31,0-.61,0-.92,0ZM285.39,289.12L461.63,24.99c28.79-10.62,57.02-16.01,83.92-16.01,53.06,0,102,20.16,149.6,61.63,40.22,35.04,72.12,79.02,97.81,114.64l-165.85,318.32-341.72-214.45Zm673.06,147.09c1.24-.68,1.77-2.19,1.21-3.49-44.37-104.6-92.81-194.05-143.99-265.87C764.63,95.22,704.09,32.66,655.41.86l441.32-.86c37.33,3.37,67.29,15.26,94.29,37.42,24.37,20,44.33,46.59,66.79,80.36l64.8,113.99c.37.66,1,1.13,1.73,1.31.22.05.44.08.66.08.52,0,1.03-.15,1.48-.43l90.96-58.06-182.49,325.06-394.34.86,117.84-64.37Z"/>
  </g>
</svg>